<?xml version="1.0" encoding="utf-8"?>
<!-- Generator: Adobe Illustrator 26.5.0, SVG Export Plug-In . SVG Version: 6.00 Build 0)  -->
<svg version="1.1" xmlns="http://www.w3.org/2000/svg" xmlns:xlink="http://www.w3.org/1999/xlink" x="0px" y="0px"
	 viewBox="0 0 660.68 482.31" style="enable-background:new 0 0 660.68 482.31;" xml:space="preserve">
<style type="text/css">
	.st0{fill:#FFFFFF;}
	.st1{fill:#0C0C16;}
	.st2{fill:#6666FF;}
	.st3{fill:#B9F0D7;}
	.st4{fill:#C0E0D1;}
	.st5{fill:#6668F7;}
	.st6{fill:none;stroke:#FFFFFF;stroke-width:0.9362;stroke-miterlimit:10;}
	.st7{fill:#1D1D1B;}
	.st8{opacity:0.56;fill:#E20613;}
	.st9{fill:#868686;}
	.st10{fill:#E20613;}
	.st11{fill:none;stroke:#E20613;stroke-width:0.5;stroke-miterlimit:10;}
	.st12{fill:none;stroke:#E20613;stroke-width:0.7914;stroke-miterlimit:10;}
	.st13{fill:#C9E8FF;}
	.st14{fill:#B8BEFF;}
	.st15{fill:#6665FF;}
	.st16{fill:#CEE6FF;}
</style>
<g id="Capa_1">
	<rect class="st1" width="660.68" height="482.31"/>
	<g>
		<path class="st4" d="M404.17,269.85c-0.1-1.49-0.26-2.97-0.42-4.49c-0.36-2.68-0.78-5.43-1.29-8.21
			c-0.16-0.87-0.32-1.71-0.52-2.58c-0.81-3.78-1.78-7.63-2.94-11.44c-0.48-1.68-1.03-3.33-1.58-5.01
			c-4.62-13.63-11.31-27.11-19.48-39.22c-1.03-1.55-2.1-3.07-3.17-4.56c-0.81-1.1-1.62-2.16-2.42-3.23
			c-0.55-0.71-1.07-1.39-1.62-2.07c-5.49-6.88-11.44-13.05-17.74-18.29c-1.23-1.07-2.49-2.07-3.78-3.04
			c-3.42-2.58-6.95-4.88-10.53-6.85c-1.13-0.61-2.23-1.2-3.36-1.74c-0.42-0.23-0.84-0.42-1.26-0.58c-0.58-0.29-1.16-0.55-1.74-0.78
			c-0.61-0.29-1.26-0.55-1.87-0.78c-0.81-0.35-1.65-0.65-2.46-0.9c-0.74-0.26-1.45-0.52-2.2-0.74c-0.71-0.19-1.45-0.42-2.2-0.61
			c-0.71-0.19-1.45-0.36-2.2-0.55c-0.71-0.16-1.42-0.29-2.16-0.42c-0.71-0.13-1.42-0.26-2.16-0.35c-0.52-0.06-1.03-0.13-1.55-0.16
			c-2.23-0.19-4.46-0.19-6.69,0.03c-0.03,0-0.06,0.03-0.1,0c-0.52,0.06-1,0.13-1.49,0.19c-0.68,0.1-1.32,0.23-1.97,0.35
			c-0.52,0.1-1.03,0.23-1.55,0.36c-0.48,0.13-0.97,0.26-1.45,0.39c-0.03,0-0.03,0-0.06,0c-0.48,0.16-0.97,0.29-1.45,0.45
			c-4.43,1.42-9.47,3.88-13.8,8.08c-0.26,0.23-0.48,0.45-0.71,0.71c-0.94,0.94-1.81,1.94-2.65,3.07c-0.42,0.58-0.84,1.2-1.23,1.81
			c-0.03,0.03-0.03,0.06-0.06,0.1c-0.39,0.58-0.74,1.2-1.1,1.84c-0.26,0.48-0.52,1-0.78,1.55c-0.19,0.39-0.39,0.78-0.55,1.2
			c-0.81,1.81-1.49,3.81-2,5.98c-0.23,0.84-0.39,1.68-0.55,2.58c-0.1,0.48-0.19,0.97-0.26,1.45v0.03c-0.13,0.87-0.26,1.78-0.32,2.68
			c-0.13,1.2-0.19,2.42-0.23,3.72c0,0,13.93-57.51,67.53-16.48l-50.73,12.21l-0.36,0.1c-21.97,7.21-36.74,27.59-36.74,50.73v62.23
			c0,7.11,4.52,13.47,11.21,15.83c9.27,3.26,23.81,7.43,37.87,7.43c7.5,0,14.9-1.2,21.26-4.33c0.81-0.42,1.55-0.78,2.29-1.1
			c2.71-1.29,5.04-2.42,8.08-4.59c25.1-18.16,24.49-19.45,22.84-22.91c-1.81-3.78-2.75-7.56-2.58-10.63
			c0.48-10.82,9.37-19.68,20.19-20.19c5.59-0.29,10.89,1.58,14.99,5.2c6.82,43.55-8.37,79.13-59.13,52.76
			c1.68,1.33,46.2,35.93,66.53-12.89C403.78,293.53,405.11,282.09,404.17,269.85z M376.96,249.43
			c-15.25,0.74-27.75,13.21-28.47,28.47c-0.23,4.52,0.97,8.85,2.33,12.25c-3.33,3.01-11.7,9.4-18.97,14.67
			c-2.39,1.71-4.23,2.58-6.75,3.78c-0.74,0.36-1.55,0.74-2.39,1.16c-15.99,7.88-41.97,0.16-52.38-3.49
			c-3.23-1.16-5.43-4.23-5.43-7.66v-62.23c0-19.29,12.28-36.35,30.6-42.42l56.74-13.63c18.06,17.45,31.63,45.04,37.87,71.5
			C386.01,250.11,381.52,249.27,376.96,249.43z"/>
		<g>
			<path class="st4" d="M356.7,198.35l-5.88,3.1c-24.07,16.22-18.51,54.83-31.37,77.9c-6.2,11.15-18.22,14.7-31.47,15.77
				c-0.74,0.03-1.81,0.16-2.49-0.16c-0.13-0.58,3.01-0.74,3.46-0.84c34.99-7.27,25.72-55.9,43.85-80.03
				C337.51,207.78,349.11,200.57,356.7,198.35z"/>
		</g>
		<g>
			<path class="st4" d="M380.71,288.59c-5.98,2.07-12.67-1.52-14.96-8.05c-2.29-6.56,0.71-13.54,6.69-15.64
				c5.94-2.1,12.67,1.52,14.96,8.05C389.69,279.48,386.69,286.49,380.71,288.59z"/>
		</g>
	</g>
</g>
<g id="Capa_2">
</g>
</svg>
